<svg width="35" id="capa1" height="29" viewBox="0 0 35 29" fill="none" xmlns="http://www.w3.org/2000/svg">
<path d="M22.8844 29H30.9615C32.0834 29 33.0369 28.6155 33.8223 27.8467C34.6073 27.0777 35 26.1441 35 25.0454V17.1363C35 16.0377 34.6076 15.1042 33.8223 14.3354C33.0369 13.5666 32.0832 13.182 30.9615 13.182L26.2499 13.182C25.6892 13.182 25.2124 12.9896 24.8197 12.6053C24.427 12.2211 24.2308 11.754 24.2308 11.2045V10.5458C24.2308 9.09019 24.7567 7.84791 25.8083 6.81787C26.8599 5.78834 28.1289 5.2734 29.6155 5.2734H30.9615C31.3263 5.2734 31.6417 5.1426 31.9082 4.88188C32.1745 4.62116 32.3078 4.31211 32.3078 3.95508V1.31839C32.3078 0.961935 32.1745 0.652304 31.9082 0.391512C31.6415 0.130865 31.3264 0 30.9615 0H29.6154C28.1569 0 26.7652 0.278467 25.44 0.834389C24.1149 1.39038 22.9686 2.14239 22.001 3.08989C21.0336 4.03747 20.2658 5.1597 19.698 6.45738C19.1302 7.75499 18.8462 9.11774 18.8462 10.5457L18.8462 25.0456C18.8462 26.1444 19.2388 27.0779 20.024 27.8467C20.8091 28.6156 21.7628 29 22.8844 29Z" fill="#FF5253"/>
<path d="M1.17818 27.8467C1.96323 28.6155 2.91676 29 4.03871 29H12.1155C13.2374 29 14.1909 28.6155 14.976 27.8467C15.761 27.0776 16.1536 26.1441 16.1536 25.0454V17.1363C16.1536 16.0377 15.761 15.1042 14.976 14.3354C14.1909 13.5666 13.2373 13.182 12.1155 13.182L7.40395 13.182C6.84324 13.182 6.36599 12.9896 5.9734 12.6053C5.58117 12.2209 5.38447 11.754 5.38447 11.2045V10.5458C5.38447 9.09019 5.91041 7.84791 6.96222 6.81787C8.01381 5.78834 9.28243 5.2734 10.7692 5.2734H12.1155C12.48 5.2734 12.7957 5.1426 13.0619 4.88188C13.3284 4.62116 13.4618 4.31211 13.4618 3.95508V1.31839C13.4618 0.961935 13.3284 0.652304 13.0619 0.391512C12.7958 0.130865 12.4801 0 12.1155 0H10.7692C9.31094 0 7.91929 0.278467 6.59393 0.834389C5.26902 1.39038 4.12291 2.14239 3.15524 3.08989C2.18763 4.03747 1.41938 5.15999 0.851892 6.45738C0.284178 7.7547 2.67029e-05 9.11774 2.67029e-05 10.5457L2.67029e-05 25.0456C0.000247955 26.1444 0.39255 27.0779 1.17818 27.8467Z" fill="#FF5253"/>
</svg>
