<svg width="35" id="capa2" height="29" viewBox="0 0 35 29" fill="none" xmlns="http://www.w3.org/2000/svg">
<path d="M12.1152 0H4.03817C2.91622 0 1.96276 0.384514 1.17735 1.15333C0.392304 1.92228 -0.000366211 2.85594 -0.000366211 3.95465V11.8637C-0.000366211 12.9623 0.392083 13.8958 1.17735 14.6646C1.96269 15.4334 2.91644 15.818 4.03817 15.818H8.74969C9.3104 15.818 9.78728 16.0104 10.1799 16.3947C10.5726 16.7789 10.7689 17.246 10.7689 17.7955V18.4542C10.7689 19.9098 10.2429 21.1521 9.19135 22.1821C8.13969 23.2117 6.87077 23.7266 5.38415 23.7266H4.03817C3.67334 23.7266 3.35796 23.8574 3.09141 24.1181C2.82509 24.3788 2.69182 24.6879 2.69182 25.0449V27.6816C2.69182 28.0381 2.82509 28.3477 3.09141 28.6085C3.35818 28.8691 3.67327 29 4.03817 29H5.38422C6.8427 29 8.23443 28.7215 9.55964 28.1656C10.8848 27.6096 12.031 26.8576 12.9986 25.9101C13.966 24.9625 14.7338 23.8403 15.3017 22.5426C15.8695 21.245 16.1535 19.8823 16.1535 18.4543V3.95436C16.1535 2.85565 15.7608 1.92206 14.9757 1.15325C14.1906 0.384442 13.2369 0 12.1152 0Z" fill="#FF5253"/>
<path d="M33.8215 1.15333C33.0364 0.384514 32.0829 0 30.9609 0H22.8842C21.7622 0 20.8088 0.384514 20.0236 1.15333C19.2386 1.92235 18.8461 2.85594 18.8461 3.95465V11.8637C18.8461 12.9623 19.2386 13.8958 20.0236 14.6646C20.8088 15.4334 21.7623 15.818 22.8842 15.818H27.5957C28.1564 15.818 28.6336 16.0104 29.0262 16.3947C29.4185 16.7791 29.6152 17.246 29.6152 17.7955V18.4542C29.6152 19.9098 29.0892 21.1521 28.0374 22.1821C26.9858 23.2117 25.7172 23.7266 24.2304 23.7266H22.8842C22.5196 23.7266 22.2039 23.8574 21.9377 24.1181C21.6712 24.3788 21.5378 24.6879 21.5378 25.0449V27.6816C21.5378 28.0381 21.6712 28.3477 21.9377 28.6085C22.2039 28.8691 22.5196 29 22.8842 29H24.2304C25.6887 29 27.0803 28.7215 28.4057 28.1656C29.7306 27.6096 30.8767 26.8576 31.8444 25.9101C32.812 24.9625 33.5802 23.84 34.1477 22.5426C34.7155 21.2453 34.9996 19.8823 34.9996 18.4543V3.95436C34.9994 2.85565 34.6071 1.92206 33.8215 1.15333Z" fill="#FF5253"/>
</svg>
